<svg width="25" height="24" viewBox="0 0 25 24" fill="none" xmlns="http://www.w3.org/2000/svg">
<path d="M10.9944 7.10421L10.9937 7.10393C10.209 6.81439 9.53966 6.58075 8.9613 6.58075C8.27785 6.58075 6.93213 6.85513 5.778 7.78249C4.67124 8.67179 3.65723 10.2265 3.65723 12.9745C3.65723 14.6321 4.33712 17.2255 5.46911 19.4124C6.03079 20.4975 6.67464 21.4246 7.34787 22.0677C8.02571 22.7153 8.64646 22.996 9.18693 23H9.20712C9.89091 23 10.5133 22.7765 11.225 22.5109L10.9944 7.10421ZM10.9944 7.10421L11.0034 7.10751C11.2555 7.20029 11.5423 7.30588 11.8061 7.38754C12.0454 7.46161 12.3828 7.5551 12.698 7.5551C12.8711 7.5551 13.029 7.51894 13.1215 7.49526C13.2296 7.46758 13.3397 7.43217 13.4401 7.39738C13.6308 7.3313 13.8412 7.24797 14.0166 7.17848L14.0405 7.16904L14.0423 7.16834C14.8497 6.84689 15.673 6.52929 16.6091 6.52929H16.6092H16.6092H16.6092H16.6092H16.6092H16.6092H16.6092H16.6092H16.6093H16.6093H16.6093H16.6093H16.6093H16.6093H16.6093H16.6093H16.6094H16.6094H16.6094H16.6094H16.6094H16.6094H16.6094H16.6094H16.6095H16.6095H16.6095H16.6095H16.6095H16.6095H16.6095H16.6095H16.6096H16.6096H16.6096H16.6096H16.6096H16.6096H16.6096H16.6096H16.6097H16.6097H16.6097H16.6097H16.6097H16.6097H16.6097H16.6097H16.6098H16.6098H16.6098H16.6098H16.6098H16.6098H16.6098H16.6098H16.6099H16.6099H16.6099H16.6099H16.6099H16.6099H16.6099H16.61H16.61H16.61H16.61H16.61H16.61H16.61H16.61H16.6101H16.6101H16.6101H16.6101H16.6101H16.6101H16.6101H16.6101H16.6102H16.6102H16.6102H16.6102H16.6102H16.6102H16.6102H16.6103H16.6103H16.6103H16.6103H16.6103H16.6103H16.6103H16.6103H16.6104H16.6104H16.6104H16.6104H16.6104H16.6104H16.6104H16.6105H16.6105H16.6105H16.6105H16.6105H16.6105H16.6105H16.6105H16.6106H16.6106H16.6106H16.6106H16.6106H16.6106H16.6106H16.6107H16.6107H16.6107H16.6107H16.6107H16.6107H16.6107H16.6107H16.6108H16.6108H16.6108H16.6108H16.6108H16.6108H16.6108H16.6109H16.6109H16.6109H16.6109H16.6109H16.6109H16.6109H16.611H16.611H16.611H16.611H16.611H16.611H16.611H16.6111H16.6111H16.6111H16.6111H16.6111H16.6111H16.6111H16.6111H16.6112H16.6112H16.6112H16.6112H16.6112H16.6112H16.6112H16.6113H16.6113H16.6113H16.6113H16.6113H16.6113H16.6113H16.6114H16.6114H16.6114H16.6114H16.6114H16.6114H16.6114H16.6115H16.6115H16.6115H16.6115H16.6115H16.6115H16.6115H16.6115H16.6116H16.6116H16.6116H16.6116H16.6116H16.6116H16.6116H16.6117H16.6117H16.6117H16.6117H16.6117H16.6117H16.6117H16.6118H16.6118H16.6118H16.6118H16.6118H16.6118H16.6118H16.6119H16.6119H16.6119H16.6119H16.6119H16.6119H16.6119H16.612H16.612H16.612H16.612H16.612H16.612H16.612H16.6121H16.6121H16.6121H16.6121H16.6121H16.6121H16.6121H16.6122H16.6122H16.6122H16.6122H16.6122H16.6122H16.6122H16.6122H16.6123H16.6123H16.6123H16.6123H16.6123H16.6123H16.6123H16.6124H16.6124H16.6124H16.6124H16.6124H16.6124H16.6124H16.6125H16.6125H16.6125H16.6125H16.6125H16.6125H16.6125H16.6126H16.6126H16.6126H16.6126H16.6126H16.6126H16.6126H16.6127H16.6127H16.6127H16.6127H16.6127H16.6127H16.6127H16.6128H16.6128H16.6128H16.6128H16.6128H16.6128H16.6128H16.6129H16.6129H16.6129H16.6129H16.6129H16.6129H16.6129H16.613H16.613H16.613H16.613H16.613H16.613H16.613H16.6131H16.6131H16.6131H16.6131H16.6131H16.6131H16.6131H16.6131H16.6132H16.6132H16.6132H16.6132H16.6132H16.6132H16.6132H16.6133H16.6133H16.6133H16.6133H16.6133H16.6133H16.6133H16.6134H16.6134H16.6134H16.6134H16.6134H16.6134H16.6134H16.6135H16.6135H16.6135H16.6135H16.6135H16.6135H16.6135H16.6136H16.6136H16.6136H16.6136H16.6136H16.6136H16.6136H16.6137H16.6137H16.6137H16.6137H16.6137H16.6137H16.6137H16.6137H16.6138H16.6138H16.6138H16.6138H16.6138H16.6138H16.6138H16.6139H16.6139H16.6139H16.6139H16.6139H16.6139H16.6139H16.614H16.614H16.614H16.614H16.614H16.614H16.614H16.614H16.6141H16.6141H16.6141H16.6141H16.6141H16.6141H16.6141H16.6142H16.6142H16.6142H16.6142H16.6142H16.6142H16.6142H16.6143H16.6143H16.6143H16.6143H16.6143H16.6143H16.6143H16.6143H16.6144H16.6144H16.6144H16.6144H16.6144H16.6144H16.6144H16.6145H16.6145H16.6145H16.6145H16.6145H16.6145H16.6145H16.6145H16.6146H16.6146H16.6146H16.6146H16.6146H16.6146H16.6146H16.6147H16.6147H16.6147H16.6147H16.6147H16.6147H16.6147H16.6147H16.6148H16.6148H16.6148H16.6148H16.6148H16.6148H16.6148H16.6149H16.6149H16.6149H16.6149H16.6149H16.6149H16.6149H16.6149H16.615H16.615H16.615H16.615H16.615H16.615H16.615H16.615H16.6151H16.6151H16.6151H16.6151H16.6151H16.6151H16.6151H16.6152H16.6152H16.6152H16.6152H16.6152H16.6152H16.6152H16.6152H16.6153H16.6153H16.6153H16.6153H16.6153H16.6153H16.6153H16.6153H16.6154H16.6154H16.6154H16.6154H16.6154H16.6154H16.6154H16.6154H16.6155H16.6155H16.6155H16.6155H16.6155H16.6155H16.6155H16.6155H16.6156H16.6156H16.6156H16.6156H16.6156H16.6156H16.6156H16.6156H16.6157H16.6157H16.6157H16.6157H16.6157H16.6157H16.6157H16.6157H16.6158H16.6158H16.6158H16.6158H16.6158H16.6158H16.6158H16.6158H16.6158H16.6159H16.6159H16.6159H16.6159H16.6159H16.6159H16.6159H16.6159H16.616H16.616H16.616H16.616C17.3645 6.52929 19.371 6.69651 20.6598 8.4006C19.8247 9.04527 18.3585 10.3387 18.3585 12.6931C18.3585 14.1495 18.8324 15.2148 19.4564 15.983C20.0509 16.7149 20.7523 17.1367 21.134 17.3663L21.1535 17.378L21.1535 17.378C21.2033 17.408 21.2429 17.4319 21.2767 17.4531C21.2146 17.6256 21.1238 17.8579 21.0057 18.1316C20.7483 18.7283 20.3723 19.4954 19.9005 20.2479C19.4249 21.0065 18.8765 21.7104 18.2855 22.2145C17.6934 22.7196 17.1324 22.9636 16.6043 22.9636C15.9921 22.9636 15.5669 22.7894 15.0581 22.5731C15.058 22.5731 15.0579 22.573 15.0578 22.573L15.0419 22.5662C14.5019 22.3365 13.8942 22.0779 12.9417 22.0779C12.6096 22.0779 12.287 22.1539 12.022 22.2327C11.7563 22.3117 11.4806 22.4151 11.2374 22.5063L11.2263 22.5104L10.9944 7.10421Z" fill="white" stroke="white" stroke-width="2" stroke-linecap="round" stroke-linejoin="round"/>
<path d="M15.9584 1C16.0271 3.4757 14.2565 5.19323 12.4881 5.08551C12.1967 3.10981 14.2563 1 15.9584 1Z" fill="white" stroke="white" stroke-width="0.5" stroke-linecap="round" stroke-linejoin="round"/>
</svg>
