<svg width="65" height="64" viewBox="0 0 65 64" fill="none" xmlns="http://www.w3.org/2000/svg">
<rect x="0.333374" width="64" height="64" rx="8" fill="#292929"/>
<path d="M27.3334 30.75C34.2369 30.75 39.8334 28.2316 39.8334 25.125C39.8334 22.0184 34.2369 19.5 27.3334 19.5C20.4298 19.5 14.8334 22.0184 14.8334 25.125C14.8334 28.2316 20.4298 30.75 27.3334 30.75Z" stroke="white" stroke-width="2.5" stroke-linecap="round" stroke-linejoin="round"/>
<path d="M14.8334 25.125V31.375C14.8334 34.4844 20.4271 37 27.3334 37C34.2396 37 39.8334 34.4844 39.8334 31.375V25.125" stroke="white" stroke-width="2.5" stroke-linecap="round" stroke-linejoin="round"/>
<path d="M22.3334 30.2812V36.5312" stroke="white" stroke-width="2.5" stroke-linecap="round" stroke-linejoin="round"/>
<path d="M39.8334 27.1095C45.5365 27.6407 49.8334 29.9064 49.8334 32.6251C49.8334 35.7345 44.2396 38.2501 37.3334 38.2501C34.2709 38.2501 31.4584 37.7501 29.2865 36.9376" stroke="white" stroke-width="2.5" stroke-linecap="round" stroke-linejoin="round"/>
<path d="M24.8334 36.8906V38.875C24.8334 41.9844 30.4271 44.5 37.3334 44.5C44.2396 44.5 49.8334 41.9844 49.8334 38.875V32.625" stroke="white" stroke-width="2.5" stroke-linecap="round" stroke-linejoin="round"/>
<path d="M42.3334 37.7812V44.0312" stroke="white" stroke-width="2.5" stroke-linecap="round" stroke-linejoin="round"/>
<path d="M32.3334 30.2812V44.0312" stroke="white" stroke-width="2.5" stroke-linecap="round" stroke-linejoin="round"/>
</svg>
