<svg width="20" height="20" viewBox="0 0 20 20" fill="none" xmlns="http://www.w3.org/2000/svg">
<path d="M6.71887 4.53125L10.0001 1.25L13.2814 4.53125" stroke="#292929" stroke-width="2" stroke-linecap="round" stroke-linejoin="round"/>
<path d="M10.0001 10L10.0001 1.25" stroke="#292929" stroke-width="2" stroke-linecap="round" stroke-linejoin="round"/>
<path d="M13.7501 7.5L15.6251 7.5C15.7909 7.5 15.9499 7.56585 16.0671 7.68306C16.1843 7.80027 16.2501 7.95924 16.2501 8.125V16.25C16.2501 16.4158 16.1843 16.5747 16.0671 16.6919C15.9499 16.8092 15.7909 16.875 15.6251 16.875H4.37512C4.20936 16.875 4.05039 16.8092 3.93318 16.6919C3.81597 16.5747 3.75012 16.4158 3.75012 16.25L3.75012 8.125C3.75012 7.95924 3.81597 7.80027 3.93318 7.68306C4.05039 7.56585 4.20936 7.5 4.37512 7.5H6.25012" stroke="#292929" stroke-width="2" stroke-linecap="round" stroke-linejoin="round"/>
</svg>
