<svg width="24" height="24" viewBox="0 0 24 24" fill="none" xmlns="http://www.w3.org/2000/svg">
<g clip-path="url(#clip0_1525_3027)">
<path d="M13.8089 12.0021L1.75667 23.6076C1.19228 23.2219 0.857189 22.5803 0.863114 21.8968V2.10748C0.857189 1.42392 1.19228 0.782351 1.75667 0.396643L13.8089 12.0021Z" fill="#1A94FF"/>
<path d="M18.0261 7.94838L13.8089 12.0021L1.75671 0.396642C1.80212 0.361448 1.84942 0.328705 1.89836 0.298568C2.53533 -0.0874982 3.33096 -0.0999618 3.97974 0.265876L18.0261 7.94838Z" fill="#389E0D"/>
<path d="M23.1369 12.0021C23.1448 12.7738 22.7255 13.4866 22.0472 13.8547L18.0262 16.0559L13.809 12.0021L18.0262 7.94837L22.0472 10.1496C22.7255 10.5177 23.1448 11.2304 23.1369 12.0021Z" fill="#FAAD14"/>
<path d="M18.0261 16.0559L3.97974 23.7384C3.32953 24.0985 2.53692 24.0861 1.89836 23.7057C1.84942 23.6755 1.80212 23.6428 1.75671 23.6076L13.809 12.0021L18.0261 16.0559Z" fill="#D4380D"/>
</g>
<defs>
<clipPath id="clip0_1525_3027">
<rect width="24" height="24" fill="white"/>
</clipPath>
</defs>
</svg>
