<svg width="64" height="64" viewBox="0 0 64 64" fill="none" xmlns="http://www.w3.org/2000/svg">
<rect width="64" height="64" rx="8" fill="#292929"/>
<path d="M26.1088 24.0833C21.4998 24.0833 17.75 27.6347 17.75 31.9999C17.75 36.3652 21.4998 39.9166 26.1088 39.9166L37.8912 39.9166C42.5002 39.9166 46.25 36.3652 46.25 31.9999C46.25 27.6347 42.5002 24.0833 37.8912 24.0833L26.1088 24.0833ZM37.8912 25.292C41.7965 25.292 44.9737 28.3012 44.9737 31.9999C44.9737 35.6986 41.7965 38.7078 37.8912 38.7078L26.1088 38.7078C22.2034 38.7078 19.0262 35.6986 19.0262 31.9999C19.0262 28.3012 22.2034 25.292 26.1088 25.292L37.8912 25.292Z" fill="white" stroke="white" stroke-width="0.7"/>
<path fill-rule="evenodd" clip-rule="evenodd" d="M40.5622 42.4099C39.8711 42.5517 39.1557 42.6262 38.4233 42.6262L25.5765 42.6262C22.9865 42.6262 20.4892 41.679 18.5449 39.9591C18.5347 39.9501 18.5243 39.9415 18.5138 39.9332C17.6274 39.1432 16.8738 38.2073 16.2911 37.1635C16.2861 37.1534 16.2808 37.1433 16.2752 37.1333C15.4084 35.5692 14.9502 33.7941 14.9502 31.9999C14.9502 27.0761 18.3164 22.9237 22.8683 21.7232C23.7332 21.4951 24.6409 21.3736 25.5764 21.3736L38.4232 21.3736C41.0132 21.3736 43.5105 22.3208 45.4549 24.0407C45.465 24.0497 45.4754 24.0583 45.4859 24.0666C46.3723 24.8566 47.1259 25.7925 47.7086 26.8362C47.7136 26.8464 47.7189 26.8565 47.7245 26.8665C48.5913 28.4305 49.0495 30.2057 49.0495 31.9999C49.0495 36.3386 46.4359 40.0783 42.7004 41.7272C42.0217 42.0268 41.306 42.2573 40.5622 42.4099ZM49.4952 36.6733C48.738 38.4605 47.5602 40.028 46.0867 41.2508C44.005 42.9782 41.3333 44.0178 38.4232 44.0178L25.5765 44.0178C18.9498 44.0178 13.5586 38.6266 13.5586 31.9999C13.5586 28.0426 15.4811 24.526 18.4412 22.3349C20.4381 20.8568 22.907 19.9819 25.5765 19.9819L38.4232 19.9819C45.0499 19.9819 50.4412 25.3732 50.4412 31.9999C50.4412 33.6566 50.1042 35.236 49.4952 36.6733Z" fill="white"/>
<path d="M41.3054 42.2291L41.3733 42.4697L41.3733 42.4697L41.3054 42.2291ZM38.4233 42.6262L38.4233 42.3762L38.4233 42.6262ZM25.5765 42.6262L25.5765 42.8762L25.5765 42.6262ZM18.5449 39.9591L18.3792 40.1463L18.3792 40.1463L18.5449 39.9591ZM18.5138 39.9331L18.3475 40.1198L18.3531 40.1249L18.3591 40.1296L18.5138 39.9331ZM16.2911 37.1636L16.0666 37.2743L16.0728 37.2854L16.2911 37.1636ZM16.2752 37.1333L16.0566 37.2545L16.0566 37.2545L16.2752 37.1333ZM22.9796 21.6945L22.9185 21.452L22.9185 21.452L22.9796 21.6945ZM45.4549 24.0407L45.6205 23.8535L45.6205 23.8534L45.4549 24.0407ZM45.4859 24.0666L45.6523 23.88L45.6466 23.8749L45.6406 23.8702L45.4859 24.0666ZM47.7086 26.8362L47.9332 26.7255L47.9269 26.7143L47.7086 26.8362ZM47.7245 26.8665L47.9431 26.7453L47.9431 26.7453L47.7245 26.8665ZM46.1483 41.1993L45.9874 41.0079L45.9874 41.0079L46.1483 41.1993ZM50.1966 34.4189L50.4415 34.4691H50.4415L50.1966 34.4189ZM18.5021 22.2901L18.3547 22.0882L18.5021 22.2901ZM25.5765 19.9819L25.5765 19.7319L25.5765 19.9819ZM38.4232 19.9819L38.4232 20.2319L38.4232 19.9819ZM50.4412 31.9999L50.6912 31.9999L50.4412 31.9999ZM41.2375 41.9885C40.3425 42.241 39.3986 42.3762 38.4233 42.3762L38.4233 42.8762C39.445 42.8762 40.4346 42.7346 41.3733 42.4697L41.2375 41.9885ZM38.4233 42.3762L25.5765 42.3762L25.5765 42.8762L38.4233 42.8762L38.4233 42.3762ZM25.5765 42.3762C23.0476 42.3762 20.6092 41.4514 18.7105 39.7718L18.3792 40.1463C20.3692 41.9066 22.9253 42.8762 25.5765 42.8762L25.5765 42.3762ZM18.7105 39.7718C18.6968 39.7597 18.6827 39.748 18.6685 39.7367L18.3591 40.1296C18.3659 40.1349 18.3726 40.1405 18.3792 40.1463L18.7105 39.7718ZM18.6801 39.7465C17.8144 38.9749 17.0784 38.0609 16.5094 37.0417L16.0728 37.2854C16.6692 38.3537 17.4405 39.3114 18.3475 40.1198L18.6801 39.7465ZM16.5153 37.053C16.5085 37.0393 16.5014 37.0256 16.4939 37.0121L16.0566 37.2545C16.0602 37.261 16.0636 37.2675 16.0669 37.2741L16.5153 37.053ZM16.4939 37.0121C15.6477 35.4853 15.2002 33.7519 15.2002 31.9999L14.7002 31.9999C14.7002 33.8364 15.1691 35.6532 16.0566 37.2545L16.4939 37.0121ZM15.2002 31.9999C15.2002 27.1535 18.5407 23.0713 23.0407 21.9369L22.9185 21.452C18.2021 22.641 14.7002 26.9185 14.7002 31.9999L15.2002 31.9999ZM23.0407 21.9369C23.8523 21.7323 24.7017 21.6236 25.5764 21.6236L25.5764 21.1236C24.6601 21.1236 23.7696 21.2375 22.9185 21.452L23.0407 21.9369ZM25.5764 21.6236L38.4232 21.6236L38.4232 21.1236L25.5764 21.1236L25.5764 21.6236ZM38.4232 21.6236C40.9521 21.6236 43.3905 22.5484 45.2892 24.2279L45.6205 23.8534C43.6306 22.0932 41.0744 21.1236 38.4232 21.1236L38.4232 21.6236ZM45.2892 24.2279C45.303 24.2401 45.317 24.2518 45.3313 24.263L45.6406 23.8702C45.6338 23.8649 45.6271 23.8593 45.6205 23.8535L45.2892 24.2279ZM45.3196 24.2533C46.1853 25.0248 46.9213 25.9389 47.4903 26.9581L47.9269 26.7143C47.3305 25.6461 46.5593 24.6883 45.6523 23.88L45.3196 24.2533ZM47.4844 26.9467C47.4912 26.9605 47.4983 26.9742 47.5058 26.9877L47.9431 26.7453C47.9395 26.7388 47.9361 26.7322 47.9329 26.7257L47.4844 26.9467ZM47.5058 26.9877C48.3521 28.5145 48.7996 30.2479 48.7996 31.9999L49.2996 31.9999C49.2996 30.1634 48.8306 28.3466 47.9431 26.7453L47.5058 26.9877ZM48.7996 31.9999C48.7995 36.7457 45.5963 40.7587 41.2375 41.9885L41.3733 42.4697C45.9414 41.1809 49.2995 36.9758 49.2996 31.9999L48.7996 31.9999ZM46.3092 41.3906C48.3849 39.6447 49.8762 37.2241 50.4415 34.4691L49.9517 34.3686C49.4097 37.01 47.9796 39.3323 45.9874 41.0079L46.3092 41.3906ZM38.4232 44.2678C41.4233 44.2678 44.1756 43.1852 46.3092 41.3906L45.9874 41.0079C43.9402 42.7298 41.3008 43.7678 38.4232 43.7678L38.4232 44.2678ZM25.5765 44.2678L38.4232 44.2678L38.4232 43.7678L25.5765 43.7678L25.5765 44.2678ZM13.3086 31.9999C13.3086 38.7647 18.8117 44.2678 25.5765 44.2678L25.5765 43.7678C19.0879 43.7678 13.8086 38.4885 13.8086 31.9999L13.3086 31.9999ZM13.3086 31.9999C13.3086 31.9721 13.3132 31.9488 13.3181 31.9314C13.323 31.9142 13.3289 31.9006 13.3332 31.8917C13.3375 31.8827 13.3415 31.8758 13.3436 31.8722C13.3457 31.8688 13.3475 31.8659 13.3472 31.8664L13.3472 31.8664C13.3472 31.8664 13.3472 31.8664 13.3472 31.8664C13.3472 31.8664 13.3472 31.8664 13.3472 31.8664C13.3472 31.8664 13.3471 31.8665 13.3471 31.8665C13.3471 31.8665 13.347 31.8666 13.347 31.8667C13.3468 31.867 13.3466 31.8673 13.3463 31.8678C13.3457 31.8687 13.3448 31.8703 13.3436 31.8722C13.3415 31.8758 13.3375 31.8827 13.3332 31.8917C13.3289 31.9006 13.323 31.9142 13.3181 31.9314C13.3132 31.9488 13.3086 31.9722 13.3086 31.9999L13.8086 31.9999C13.8086 32.0276 13.8039 32.051 13.799 32.0684C13.7941 32.0856 13.7882 32.0992 13.7839 32.1081C13.7796 32.1171 13.7756 32.1239 13.7735 32.1276C13.7715 32.131 13.7696 32.1339 13.7699 32.1334C13.7699 32.1334 13.7699 32.1334 13.7699 32.1334C13.7699 32.1334 13.7699 32.1334 13.7699 32.1334C13.7699 32.1334 13.7699 32.1334 13.7699 32.1334C13.77 32.1334 13.77 32.1333 13.77 32.1333C13.77 32.1332 13.7701 32.1331 13.7702 32.133C13.7703 32.1328 13.7705 32.1324 13.7708 32.132C13.7714 32.1311 13.7723 32.1295 13.7735 32.1276C13.7757 32.1239 13.7796 32.1171 13.7839 32.1081C13.7882 32.0991 13.7941 32.0856 13.799 32.0683C13.804 32.051 13.8086 32.0276 13.8086 31.9999L13.3086 31.9999ZM18.3547 22.0882C15.2986 24.3209 13.3086 27.9321 13.3086 31.9999L13.8086 31.9999C13.8086 28.099 15.7164 24.6349 18.6496 22.492L18.3547 22.0882ZM25.5765 19.7319C22.8792 19.7319 20.3819 20.6072 18.3547 22.0882L18.6496 22.492C20.5944 21.0711 22.9891 20.2319 25.5765 20.2319L25.5765 19.7319ZM38.4232 19.7319L25.5765 19.7319L25.5765 20.2319L38.4232 20.2319L38.4232 19.7319ZM50.6912 31.9999C50.6912 25.2351 45.188 19.7319 38.4232 19.7319L38.4232 20.2319C44.9118 20.2319 50.1912 25.5112 50.1912 31.9999L50.6912 31.9999ZM50.4415 34.4691C50.6052 33.6711 50.6912 32.8452 50.6912 31.9999L50.1912 31.9999C50.1912 32.8112 50.1087 33.6034 49.9517 34.3686L50.4415 34.4691Z" fill="white"/>
<path d="M26.5093 36.2592C27.0112 36.3541 27.4911 36.0047 27.5817 35.4786L28.151 32.1707L29.0959 35.5285C29.3925 36.5941 30.8595 36.575 31.1497 35.5185L32.0617 32.1639L32.6676 35.4883C32.8916 36.7175 34.7049 36.3541 34.4809 35.125L33.26 28.4266C33.0474 27.3332 31.471 27.275 31.1822 28.3377L30.1085 32.2871L28.9946 28.3282C28.6903 27.2386 27.1153 27.3603 26.9155 28.4501L25.7648 35.1348C25.6743 35.6608 26.0077 36.1642 26.5093 36.2592Z" fill="white" stroke="white" stroke-width="0.3"/>
<path d="M38.2499 35.1249C38.2499 35.7281 37.9164 36.2171 37.244 36.2171C36.5715 36.2171 36.2385 35.7281 36.2385 35.1249L36.2385 28.7263C36.2385 27.3141 38.2499 27.3141 38.2499 28.7263L38.2499 35.1249Z" fill="white" stroke="white" stroke-width="0.5"/>
<path d="M33.052 13.3091C33.052 12.9248 32.7405 12.6133 32.3562 12.6133C31.9719 12.6133 31.6604 12.9248 31.6604 13.3091L31.6604 17.2056C31.6604 17.5898 31.9719 17.9014 32.3562 17.9014C32.7405 17.9014 33.052 17.5898 33.052 17.2056L33.052 13.3091Z" fill="white" stroke="white" stroke-width="0.7"/>
<path d="M32.3562 51.3867C32.7405 51.3867 33.052 51.0752 33.052 50.6909L33.052 46.7944C33.052 46.4102 32.7405 46.0986 32.3562 46.0986C31.9719 46.0986 31.6604 46.4102 31.6604 46.7944L31.6604 50.6909C31.6604 51.0752 31.9719 51.3867 32.3562 51.3867V51.3867Z" fill="white" stroke="white" stroke-width="0.7"/>
</svg>
