<svg width="65" height="64" viewBox="0 0 65 64" fill="none" xmlns="http://www.w3.org/2000/svg">
<rect x="0.666748" width="64" height="64" rx="8" fill="#292929"/>
<path d="M38.2917 23.25C40.0176 23.25 41.4167 21.8509 41.4167 20.125C41.4167 18.3991 40.0176 17 38.2917 17C36.5659 17 35.1667 18.3991 35.1667 20.125C35.1667 21.8509 36.5659 23.25 38.2917 23.25Z" stroke="white" stroke-width="2.5" stroke-linecap="round" stroke-linejoin="round"/>
<path d="M13.9167 43.2499L25.3386 23.8281C25.4519 23.6439 25.6104 23.4918 25.7992 23.3862C25.9879 23.2807 26.2005 23.2253 26.4167 23.2253C26.633 23.2253 26.8456 23.2807 27.0343 23.3862C27.2231 23.4918 27.3816 23.6439 27.4949 23.8281L38.9167 43.2499H13.9167Z" stroke="white" stroke-width="2.5" stroke-linecap="round" stroke-linejoin="round"/>
<path d="M20.5417 32H32.2917" stroke="white" stroke-width="2.5" stroke-linecap="round" stroke-linejoin="round"/>
<path d="M35.1824 36.9062L40.3386 28.1874C40.4519 28.0032 40.6104 27.8511 40.7992 27.7456C40.9879 27.6401 41.2005 27.5847 41.4167 27.5847C41.633 27.5847 41.8456 27.6401 42.0343 27.7456C42.2231 27.8511 42.3816 28.0032 42.4949 28.1874L51.4167 43.2499H38.9167" stroke="white" stroke-width="2.5" stroke-linecap="round" stroke-linejoin="round"/>
</svg>
